<?xml version="1.0" encoding="utf-8"?>
<svg width="14px" height="18px" viewBox="0 0 14 18" version="1.1" xmlns:xlink="http://www.w3.org/1999/xlink" xmlns="http://www.w3.org/2000/svg">
  <desc>Created with Lunacy</desc>
  <path d="M0 6.07849C0 2.72905 2.68905 1.96515e-05 5.99998 1.06132e-10C9.31235 0 12 2.72886 12 6.07849C12 8.37931 10.9826 9.51112 9.8107 10.6055C8.63876 11.6999 7.29736 12.8176 6.3254 15.3763C6.27231 15.5113 6.14202 15.6 5.99727 15.6C5.85251 15.6 5.72221 15.5113 5.66914 15.3763C4.69713 12.8178 3.3557 11.6998 2.18383 10.6055C1.01196 9.5111 0 8.37949 0 6.07849ZM8 6.10436C8 4.9843 7.10092 4.06958 6 4.06958C4.90038 4.06958 4 4.98364 4 6.10436C4 7.22376 4.89973 8.13914 6 8.13914C7.10157 8.13914 8 7.2231 8 6.10436Z" transform="translate(0.8999939 0.89990234)" id="Combined-Shape-Copy-3" fill="none" fill-rule="evenodd" stroke="#231F20" stroke-width="1.8000001" />
</svg>