<?xml version="1.0" encoding="utf-8"?>
<svg width="14px" height="16px" viewBox="0 0 14 16" version="1.1" xmlns:xlink="http://www.w3.org/1999/xlink" xmlns="http://www.w3.org/2000/svg">
  <desc>Created with Lunacy</desc>
  <path d="M6.59968 0C9.2906 0 11.4718 2.2335 11.4718 4.98907C11.4718 6.05337 11.1452 7.06691 10.551 7.90855L10.518 7.95161L10.5655 7.98645C12.0862 9.14056 13.0413 10.9214 13.1819 12.8849L13.1957 13.142L13.2 13.3905C13.2 13.9481 12.7586 14.4 12.2142 14.4C11.6698 14.4 11.2285 13.9481 11.2285 13.3905C11.2285 11.735 10.413 10.2385 9.08216 9.39347L8.98629 9.33541L8.85074 9.41389C8.31614 9.70046 7.73286 9.88259 7.12555 9.94938L6.86387 9.97091L6.59968 9.97813C5.80466 9.97813 5.03725 9.78277 4.34937 9.41528L4.212 9.33717L4.11749 9.39501C2.90533 10.1645 2.1208 11.4746 1.99071 12.9527L1.97614 13.1756L1.97154 13.3905C1.97154 13.9481 1.53018 14.4 0.98577 14.4C0.441359 14.4 0 13.9481 0 13.3905C0 11.2305 0.98393 9.24046 2.63429 7.98712L2.68114 7.95249L2.64883 7.90916C2.14582 7.19709 1.83447 6.36163 1.75057 5.47641L1.73336 5.2338L1.72758 4.98907C1.72758 2.2335 3.90875 0 6.59968 0ZM6.59968 2.01904C4.99757 2.01904 3.69913 3.34865 3.69913 4.98913C3.69913 6.62961 4.99757 7.95921 6.59968 7.95921C8.08733 7.95921 9.32211 6.80949 9.48241 5.32324L9.49544 5.16275L9.5003 4.99402L9.49564 4.82042C9.40999 3.25236 8.14046 2.01904 6.59968 2.01904Z" transform="translate(0.3272705 0.32739258)" id="Combined-Shape" fill="#231F20" stroke="none" />
</svg>