<?xml version="1.0" encoding="utf-8"?>
<svg width="17px" height="17px" viewBox="0 0 17 17" version="1.1" xmlns:xlink="http://www.w3.org/1999/xlink" xmlns="http://www.w3.org/2000/svg">
  <desc>Created with Lunacy</desc>
  <path d="M2.28462 2.28462C3.74712 0.822042 5.73113 0 7.8 0C9.86872 0 11.8528 0.82212 13.3154 2.28462C14.778 3.74712 15.6 5.73128 15.6 7.8C15.6 9.86872 14.7779 11.8528 13.3154 13.3154C11.8529 14.778 9.86872 15.6 7.8 15.6C5.73128 15.6 3.7472 14.7779 2.28462 13.3154C0.822042 11.8529 0 9.86872 0 7.8C0 5.73128 0.82212 3.7472 2.28462 2.28462ZM12.2125 3.38754C11.0418 2.21751 9.455 1.56 7.8 1.56C6.145 1.56 4.55815 2.21754 3.38754 3.38754C2.21751 4.55816 1.56 6.145 1.56 7.8C1.56 9.455 2.21754 11.0419 3.38754 12.2125C4.55816 13.3825 6.145 14.04 7.8 14.04C9.455 14.04 11.0419 13.3825 12.2125 12.2125C13.3825 11.0418 14.04 9.455 14.04 7.8C14.04 6.145 13.3825 4.55815 12.2125 3.38754ZM6.98796 8.87035L8.99661 10.879Q9.05082 10.9332 9.11458 10.9758Q9.17833 11.0184 9.24916 11.0478Q9.32 11.0771 9.3952 11.0921Q9.4704 11.107 9.54707 11.107Q9.62375 11.107 9.69895 11.0921Q9.77415 11.0771 9.84499 11.0478Q9.91583 11.0185 9.97959 10.9759Q10.0433 10.9333 10.0976 10.8791L10.099 10.8777Q10.2085 10.7682 10.2677 10.6252Q10.327 10.4821 10.327 10.3273Q10.327 10.1724 10.2678 10.0294Q10.2085 9.88634 10.0991 9.77686L8.54796 8.22576Q8.43839 8.11619 8.3791 7.97303Q8.3198 7.82988 8.3198 7.67492L8.3198 4.41889Q8.3198 4.34217 8.30483 4.26692Q8.28986 4.19167 8.2605 4.12078Q8.23114 4.0499 8.18851 3.9861Q8.14588 3.92231 8.09163 3.86806Q8.03738 3.8138 7.97358 3.77118Q7.90979 3.72855 7.83891 3.69919Q7.76802 3.66983 7.69277 3.65486Q7.61752 3.63989 7.5408 3.63989L7.5388 3.63989Q7.46207 3.63989 7.38682 3.65486Q7.31157 3.66983 7.24068 3.69919Q7.1698 3.72855 7.10601 3.77118Q7.04221 3.8138 6.98796 3.86806Q6.93371 3.92231 6.89108 3.9861Q6.84845 4.0499 6.81909 4.12078Q6.78973 4.19167 6.77476 4.26692Q6.7598 4.34217 6.7598 4.41889L6.7598 8.31952Q6.7598 8.47447 6.81909 8.61763Q6.87839 8.76078 6.98796 8.87035Z" transform="translate(0.30000305 0.30004883)" id="Combined-Shape-Copy" fill="#231F20" fill-rule="evenodd" stroke="#231F20" stroke-width="0.6" />
</svg>