<?xml version="1.0" encoding="utf-8"?>
<svg width="16px" height="14px" viewBox="0 0 16 14" version="1.1" xmlns:xlink="http://www.w3.org/1999/xlink" xmlns="http://www.w3.org/2000/svg">
  <path d="M11.0788 0C12.3952 0 13.6311 0.509517 14.5594 1.43194C16.423 3.28547 16.4784 6.25367 14.7262 8.17309L14.5596 8.34688L9.50867 13.3863C9.09481 13.7797 8.5505 14 7.99798 14C7.48427 14 6.99478 13.8249 6.62073 13.4977L6.50045 13.383L1.40254 8.31259C-0.481074 6.40526 -0.465119 3.32328 1.43654 1.43194C2.35969 0.513775 3.61057 0 4.91711 0C6.02453 0 7.07198 0.363598 7.95283 1.04203L7.99658 1.07758L8.03775 1.04389C8.77964 0.46409 9.66596 0.111293 10.6052 0.0223268L10.841 0.00560303L11.0788 0ZM2.84805 6.91094L2.86581 6.91968L2.88234 6.93358L2.90036 6.95309L2.93367 6.99833L7.92283 11.9609C7.94526 11.9832 7.99285 11.9888 8.02785 11.9776L8.05726 11.9609L13.0596 6.98391L13.0872 6.9507L13.1329 6.91236C14.2529 5.7832 14.2481 3.95948 13.1204 2.83777C12.5712 2.29151 11.8407 1.98798 11.0789 1.98798C10.3844 1.98798 9.71015 2.2406 9.17867 2.69293L9.03735 2.82121L8.99248 2.8657L8.72562 3.14717C8.53419 3.33756 8.26491 3.4548 7.99815 3.4548C7.76425 3.4548 7.53406 3.3774 7.35546 3.23833L7.27069 3.16373L6.9596 2.85432C6.41338 2.31105 5.70026 2.02109 4.91806 2.02109C4.14002 2.02109 3.41068 2.32415 2.87652 2.87088C1.78904 3.95248 1.74876 5.68302 2.75569 6.81331L2.84805 6.91094Z" id="Shape" fill="#FFFFFF" stroke="none" />
</svg>