<?xml version="1.0" encoding="utf-8"?>
<svg width="16px" height="16px" viewBox="0 0 16 16" version="1.1" xmlns:xlink="http://www.w3.org/1999/xlink" xmlns="http://www.w3.org/2000/svg">
  <desc>Created with Lunacy</desc>
  <path d="M14.4 3.10151C14.4 1.993 13.5212 1.09402 12.4363 1.09402L10.8003 1.09402L10.8003 0.668752C10.8003 0.299245 10.507 0 10.1455 0C9.7841 0 9.49077 0.299245 9.49077 0.668752L9.49077 1.09402L4.90923 1.09402L4.90923 0.668752C4.90923 0.299245 4.61591 0 4.25446 0C3.89301 0 3.59969 0.299245 3.59969 0.668752L3.59969 1.09402L1.96369 1.09402C0.878761 1.09402 0 1.993 0 3.10151L0 12.1484C0 13.2575 0.878761 14.1559 1.96369 14.1559L12.4363 14.1559C13.5212 14.1559 14.4 13.2575 14.4 12.1484L14.4 3.10151ZM2.29076 2.43213L3.59968 2.43213L3.59968 2.84595C3.59968 3.21546 3.89301 3.51533 4.25445 3.51533C4.6159 3.51533 4.90923 3.21546 4.90923 2.84595L4.90923 2.43213L9.49076 2.43213L9.49076 2.84595C9.49076 3.21546 9.78409 3.51533 10.1455 3.51533C10.507 3.51533 10.8003 3.21546 10.8003 2.84595L10.8003 2.43213L12.1092 2.43213C12.6517 2.43213 13.0911 2.88194 13.0911 3.43588L13.0911 5.109L1.30891 5.109L1.30891 3.43588C1.30891 2.88194 1.74829 2.43213 2.29076 2.43213ZM12.1092 12.8177L2.29076 12.8177C1.74829 12.8177 1.30891 12.3685 1.30891 11.8139L1.30891 6.44702L13.0911 6.44702L13.0911 11.8139C13.0911 12.3685 12.6517 12.8177 12.1092 12.8177Z" transform="translate(0.44999695 0.44995117)" id="Shape" fill="#231F20" stroke="#231F20" stroke-width="0.90000004" />
</svg>