<?xml version="1.0" encoding="utf-8"?>
<svg width="20px" height="18px" viewBox="0 0 20 18" version="1.1" xmlns:xlink="http://www.w3.org/1999/xlink" xmlns="http://www.w3.org/2000/svg">
  <desc>Created with Lunacy</desc>
  <path d="M13.8485 0C15.494 0 17.0389 0.655093 18.1992 1.84106C20.5287 4.22418 20.598 8.04043 18.4078 10.5083L18.1995 10.7317L11.8858 17.2109C11.3685 17.7168 10.6881 18 9.99748 18C9.35534 18 8.74347 17.7749 8.27591 17.3541L8.12556 17.2067L1.75317 10.6876C-0.601343 8.23533 -0.581398 4.27279 1.79567 1.84106C2.94961 0.660567 4.51321 0 6.14639 0C7.53066 0 8.83997 0.467483 9.94103 1.33975L9.99573 1.38545L10.0472 1.34214C10.9745 0.596686 12.0825 0.143091 13.2565 0.0287059L13.5513 0.00720389L13.8485 0ZM3.56025 8.88543L3.58245 8.89667L3.60311 8.91455L3.62564 8.93963L3.66727 8.9978L9.90372 15.3782C9.93176 15.4069 9.99124 15.4141 10.035 15.3998L10.0718 15.3783L16.3246 8.97925L16.3592 8.93655L16.4164 8.88725C17.8164 7.43549 17.8104 5.0907 16.4007 3.6485C15.7142 2.94617 14.8011 2.55591 13.8488 2.55591C12.9806 2.55591 12.1379 2.88071 11.4735 3.46228L11.2969 3.62721L11.2408 3.68442L10.9072 4.0463C10.6679 4.29108 10.3313 4.44182 9.99787 4.44182C9.7055 4.44182 9.41776 4.34231 9.19451 4.16351L9.08854 4.06759L8.69969 3.66978C8.0169 2.97128 7.12551 2.59848 6.14776 2.59848C5.17521 2.59848 4.26354 2.98813 3.59583 3.69107C2.23648 5.0817 2.18614 7.30667 3.4448 8.75991L3.56025 8.88543Z" id="Shape-Copy" fill="#231F20" stroke="none" />
</svg>